<?xml version="1.0" encoding="utf-8"?>
<!-- Generator: Adobe Illustrator 19.0.0, SVG Export Plug-In . SVG Version: 6.00 Build 0)  -->
<svg version="1.1" id="Layer_1" xmlns="http://www.w3.org/2000/svg" xmlns:xlink="http://www.w3.org/1999/xlink" x="0px" y="0px"
	 viewBox="0 0 500 500" style="enable-background:new 0 0 500 500;" xml:space="preserve">
<style type="text/css">
	.st0{fill:#FFFFFF;}
	.st1{display:none;opacity:3.000000e-002;}
	.st2{opacity:5.000000e-002;}
	.st3{display:none;}
	.st4{display:inline;opacity:5.000000e-002;}
	.st5{display:inline;opacity:5.000000e-002;fill:#FFFFFF;}
</style>
<rect id="XMLID_1_" class="st0" width="500" height="500"/>
<path id="XMLID_3_" class="st1" d="M499,340.9c-32.5,20.2-65,40.6-97.4,60.9c-2.3,1.4-3.9,1.5-6.2,0c-43.5-27.3-87-54.5-130.6-81.6
	c-2-1.3-2.9-2.5-2.8-5c0.1-10.1,0.1-20.1,0.1-30.9c4.8,3,9,5.6,13.1,8.2c40.2,25.1,80.3,50.2,120.4,75.3c2.2,1.4,3.7,1.4,5.9,0
	c32.5-20.4,65-40.7,97.6-61.1v-56.6c-78.2,0-156.4,0-234.7,0c-12.3,0-22.5,4.2-29.5,14.3c-3.2,4.6-4.8,10.4-6.8,15.6
	c0,71,0,142.1,0,213.1c1,6.2,3.5,12.1,7.7,17c6.6,7.9,15,12.2,25.3,12.8c1.1,0.1,2.2,0.1,3.3,0.1c78.2,0,156.4,0,234.7,0V340.9z"/>
<path id="XMLID_21_" class="st2" d="M422.4,190.4c13.4,3.7,26.1,6.8,38.5,10.7c15.1,4.8,28.3,13.3,40.5,23.2
	c1.5,1.2,2.8,2.6,4.1,4.1c2.2,2.6,2.7,5.5,1,8.6c-7.3,13.1-14.4,26.3-21.9,39.4c-2.8,4.8-8.1,5-13.4,1.4
	c-6.5-4.5-12.9-9.4-19.8-13.2c-20.1-11.3-41.5-16.8-64.7-13.4c-12.3,1.8-23.4,6.4-32.6,15.1c-12.7,12-13.8,36,1.8,49.3
	c12.2,10.4,26.3,16.8,40.8,22.7c22.4,9.2,45.4,17.1,66.8,28.7c13.5,7.3,25.5,16.5,35.3,28.2c10.3,12.3,15.5,27.2,16.9,43.1
	c4.6,53.7-27.3,97.7-80.8,112c-2.8,0.8-5.7,1.6-8.6,1.9c-3.2,0.3-3.8,1.8-3.8,4.8c0.2,13.2,0.1,26.5,0.1,39.7
	c0,7.9-2.8,10.6-10.7,10.7c-10.4,0-20.8,0-31.2,0c-7,0-10.3-3.3-10.3-10.4c0-13.2-0.2-26.5,0.1-39.7c0.1-3.5-1.2-4.5-4.4-5.1
	c-27.1-4.6-52.1-14.5-74.2-31c-5.7-4.3-11.2-9-16.4-13.9c-4.6-4.3-4.7-8-1-12.9c8.4-11.2,16.9-22.3,25.5-33.4
	c3.9-5.1,8.7-5.6,13.6-1.3c16,13.8,33.7,24.7,54.3,30.4c15,4.2,30.2,6.2,45.6,2.4c11.5-2.9,22-7.9,29.5-17.7
	c12.1-15.9,9.4-38.2-7.1-49.4c-10.5-7.2-22.1-12.9-33.7-18.2c-21.4-9.8-43.5-18.2-64.8-28.4c-18.4-8.8-33.9-21.6-45.6-38.7
	c-7.9-11.7-11.6-24.8-13.1-38.6c-5-45.9,23.1-80.5,57.5-97c9.6-4.6,20.2-7.3,30.4-10.5c2.9-0.9,4.1-1.8,4-5
	c-0.2-13.5-0.1-27-0.1-40.5c0-8.1,3.1-11.2,11.2-11.2c10.3,0,20.5,0,30.8,0c7.3,0,10.3,3,10.3,10.3c0,13.2,0,26.5,0,39.7
	C422.4,188.4,422.4,189.8,422.4,190.4z"/>
<g id="XMLID_2_" class="st3">
	<path id="XMLID_107_" class="st4" d="M565.8,417.1c-8.3,5.5-16.6,11-25.3,16.7c-5.5-8.4-10.9-16.7-16.6-25.3
		c1.8-1.2,3.4-2.4,5.4-3.8c3.3,5.1,6.5,10,9.8,15.1c7.1-28.1,2.4-89.9-49.3-130c1.3-1.7,2.6-3.5,4.4-5.8c43.1,36,60.1,81.5,52.7,137
		c5.1-3.3,10-6.4,15-9.7c1.3,1.8,2.6,3.5,3.9,5.2C565.8,416.7,565.8,416.9,565.8,417.1z"/>
	<path id="XMLID_104_" class="st4" d="M430.7,313.5c6.6,2.7,13,5.2,19.4,7.9c0.6,0.2,1,1.7,0.9,2.5c-0.5,3.5-1.1,7-2,10.5
		c-0.4,1.7,0.1,2.6,1.4,3.5c6.8,4.7,12.6,10.4,17.4,17c1.2,1.6,2.3,1.9,4.1,1.4c3.9-1,7.8-1.7,12.1-2.6c1.8,4.2,3.7,8.4,5.5,12.6
		c1.1,2.5,3.2,5.4,2.6,7.6c-0.5,2-3.8,3.5-6.1,4.8c-4.2,2.3-5.5,5-4.7,10.2c1,6.6,0.1,13.5-0.2,20.3c-0.1,1.5,0.1,2.4,1.5,3.3
		c3.7,2.2,7.3,4.6,11.1,7.1c-2.7,6.9-5.5,13.7-8.3,20.7c-4.1-0.8-8.2-1.5-12.2-2.3c-1.8-0.4-2.9,0-4.1,1.6
		c-4.6,6.7-10.3,12.4-16.8,17.2c-1.6,1.2-1.9,2.2-1.4,4c0.9,3.2,1.5,6.5,2.2,9.8c0.4,1.6,0.3,2.6-1.5,3.3c-6,2.4-12,5.1-18.3,7.8
		c-2.4-3.4-4.9-6.8-7.2-10.3c-1-1.6-2-2.1-4-1.6c-7.6,1.7-15.2,1.8-22.9,0.4c-2.4-0.4-3.9,0-5.1,2.2c-1.9,3.3-4.2,6.4-6.4,9.7
		c-6.9-2.7-13.6-5.4-20.7-8.3c0.8-4.2,1.4-8.5,2.3-12.6c0.3-1.6,0-2.4-1.3-3.3c-6.9-4.8-12.9-10.6-17.8-17.4
		c-0.9-1.3-1.8-1.7-3.3-1.2c-3.5,0.9-7.1,1.7-10.7,2.3c-0.8,0.1-2.3-0.5-2.6-1.1c-2.8-6.1-5.4-12.3-8.1-18.7c3.5-2.5,6.9-5,10.4-7.3
		c1.5-1,2-1.9,1.6-3.7c-1.8-8.1-1.7-16.2-0.3-24.3c0.3-1.6-0.1-2.4-1.4-3.2c-3.1-1.9-6.1-4-9.1-6.1c-0.6-0.4-1.3-1.7-1.1-2.2
		c2.5-6.5,5.1-13,7.8-19.5c4.3,0.8,8.5,1.5,12.6,2.4c1.5,0.3,2.4,0,3.3-1.3c4.7-6.8,10.5-12.7,17.2-17.6c1.5-1.1,1.8-2.2,1.4-3.9
		c-1-4-1.8-8-2.7-12.3c6.7-2.9,13.4-5.8,20.3-8.8c2.4,3.6,4.6,7.1,7.1,10.5c0.6,0.8,2,1.6,2.9,1.5c8.3-1.7,16.6-1.7,24.9-0.3
		c1.6,0.3,2.4-0.2,3.2-1.5C425.9,320.6,428.2,317.2,430.7,313.5z M445.5,468.3c-0.8-4.1-1.7-7.8-2.3-11.6c-0.1-1,0.3-2.6,1.1-3
		c9.1-5.5,15.9-13.2,21.5-22.1c1.1-1.7,2.1-2.1,3.9-1.6c3,0.8,6,1.3,9,1.8c0.8,0.1,2.3-0.2,2.6-0.7c1.4-2.9,2.5-5.9,3.7-8.9
		c-3.3-2.2-6.3-4.3-9.4-6.1c-2-1.1-2.5-2.4-2-4.6c2.2-10,2.1-20-0.5-29.9c-0.4-1.7-0.1-2.6,1.4-3.5c3.2-2,6.3-4.3,9.6-6.5
		c-1.3-2.9-2.6-5.6-3.7-8.3c-0.6-1.4-1.5-1.8-2.9-1.5c-3.3,0.7-6.6,1.3-9.9,2c-1.5,0.4-2.2,0-3-1.3c-5.5-9.2-13-16.3-22.2-21.7
		c-1.3-0.8-1.7-1.5-1.3-3c0.9-3.9,1.6-7.8,2.4-11.9c-3.4-1.4-6.7-2.7-10.1-4.1c-2.3,3.5-4.5,6.7-6.5,10c-0.9,1.4-1.8,1.9-3.5,1.5
		c-10.3-2.3-20.6-2.2-30.8,0.4c-1.6,0.4-2.4,0.1-3.3-1.2c-2.1-3.3-4.4-6.4-6.6-9.8c-3.5,1.6-6.8,3.1-10.1,4.7
		c0.8,4.1,1.7,7.8,2.3,11.6c0.1,1-0.4,2.5-1.1,3c-9,5.7-16.2,13.2-21.7,22.3c-0.9,1.4-1.7,1.8-3.3,1.4c-3.2-0.7-6.4-1.5-9.6-1.9
		c-0.8-0.1-2.3,0.4-2.6,1.1c-1.4,2.7-2.4,5.6-3.6,8.6c3.2,2.1,6.1,4.2,9.3,6c2,1.2,2.7,2.4,2.1,4.8c-2.2,9.9-2.1,19.8,0.4,29.6
		c0.5,2-0.1,2.9-1.7,3.9c-3.1,2-6.2,4.2-9.3,6.3c1.6,3.5,3.1,6.7,4.6,10.1c4-0.8,7.9-1.4,11.6-2.3c1.8-0.5,2.5,0.1,3.4,1.5
		c5.6,8.8,12.7,16.1,21.8,21.4c1.5,0.9,1.8,1.8,1.5,3.4c-0.9,3.8-1.5,7.6-2.3,11.5c3,1.2,5.7,2.5,8.5,3.4c0.7,0.2,2.2-0.3,2.6-1
		c1.9-2.5,3.6-5.2,5.2-7.9c1-1.7,1.9-2.4,4.1-1.8c2.5,0.8,5.3,1,7.9,1.3c8.3,0.9,16.4-0.1,24.6-2.3c2.6,3.8,5.2,7.6,7.9,11.4
		C438.8,471.4,442,469.9,445.5,468.3z"/>
	<path id="XMLID_103_" class="st4" d="M271.3,379.3c9.2-55.4,39.5-93.2,90.7-114.9c-5.2-2.6-10.5-5.3-16-8.1c1.1-2,2-3.8,3.2-5.9
		c4.5,2.2,9,4.4,13.4,6.6c4.4,2.2,8.7,4.4,13.3,6.7c-4.5,9.1-8.8,18-13.3,27.1c-2-1.1-3.8-2-6-3.2c2.7-5.4,5.3-10.6,8-16
		c-32.2,9.5-80,48.5-86.1,108.6C276.2,380,274.1,379.7,271.3,379.3z"/>
	<path id="XMLID_102_" class="st4" d="M460.2,518.5c0.4,1.7,0.9,3.6,1.4,5.9c-52.7,18.3-100.5,9.8-143.9-24.8c0,5.7,0,11.6,0,17.6
		c-2,0.1-4,0.2-6.4,0.4c-0.3-10.1-0.6-20.1-0.9-30.3c10.2-0.3,20.2-0.6,30.4-1c0.1,2.3,0.3,4.3,0.4,6.9c-5.9,0.3-11.7,0.7-17.5,1
		c0,0.3-0.1,0.7-0.1,1C364.7,527.8,410,536.2,460.2,518.5z"/>
	<path id="XMLID_101_" class="st4" d="M451.1,261.7c2.3,0.9,4.2,1.6,6.4,2.4c-0.8,2.2-1.5,4.2-2.3,6.4c-2.2-0.8-4.2-1.4-6.4-2.2
		C449.5,266.2,450.2,264.2,451.1,261.7z"/>
	<path id="XMLID_100_" class="st4" d="M277.6,389.2c0,2.2,0,4.3,0,6.6c-2.2,0-4.3,0-6.6,0c0-2.1,0-4.2,0-6.6
		C273.1,389.2,275.2,389.2,277.6,389.2z"/>
	<path id="XMLID_99_" class="st4" d="M279.2,420c2.4,6,1.2,7.6-5.3,7.3c-0.4-2-0.8-4-1.2-6.4C275,420.6,277.1,420.3,279.2,420z"/>
	<path id="XMLID_98_" class="st4" d="M477.3,517.3c-2.1,1.1-4,2.1-6,3.1c-1.1-2-2.1-3.8-3.2-5.9c2-1.1,3.9-2.1,6-3.2
		C475.1,513.3,476.1,515.1,477.3,517.3z"/>
	<path id="XMLID_97_" class="st4" d="M486.5,278.8c-1.3,2-2.4,3.7-3.7,5.6c-1.9-1.1-3.6-2.1-5.5-3.1c1.1-2.1,2.1-3.9,3.2-6
		C482.5,276.5,484.4,277.6,486.5,278.8z"/>
	<path id="XMLID_96_" class="st4" d="M278.1,404.8c0.1,2.3,0.2,4.2,0.3,6.4c-2.2,0.3-4.3,0.6-6.6,0.8c-0.2-2.4-0.4-4.4-0.6-6.9
		C273.6,405.1,275.7,405,278.1,404.8z"/>
	<path id="XMLID_95_" class="st4" d="M503.5,498.7c-1.7,1.6-3.3,3-5,4.6c-1.4-1.8-2.7-3.5-4.2-5.4c1.7-1.4,3.3-2.7,5.1-4.1
		C500.8,495.4,502,496.9,503.5,498.7z"/>
	<path id="XMLID_94_" class="st4" d="M465.7,267.5c2.3,1.1,4.2,2.1,6.4,3.2c-1.1,1.9-2,3.6-3.1,5.4c-2.1-1-3.9-1.8-6-2.8
		C463.9,271.4,464.8,269.6,465.7,267.5z"/>
	<path id="XMLID_93_" class="st4" d="M485.1,512.1c-1.3-1.9-2.4-3.6-3.7-5.5c1.8-1.2,3.5-2.3,5.5-3.7c1.2,1.8,2.4,3.5,3.7,5.5
		C488.8,509.6,487.1,510.8,485.1,512.1z"/>
	<path id="XMLID_87_" class="st4" d="M457.1,398.1c-0.2,26.6-21.8,47.4-48.9,47.2c-26.4-0.2-47.4-21.7-47.1-48.3
		c0.2-26.3,22.1-47.5,48.8-47.1C436.4,350.2,457.2,371.5,457.1,398.1z M450.1,397.8c0.1-22.6-17.8-40.8-40.6-41.1
		c-22.8-0.3-41.5,18.1-41.6,40.7c-0.1,22.9,17.9,41.2,40.6,41.4C431.6,439,450,420.8,450.1,397.8z"/>
	<path id="XMLID_86_" class="st5" d="M450.1,397.8c-0.1,23-18.5,41.2-41.6,41.1c-22.7-0.2-40.7-18.5-40.6-41.4
		c0.1-22.7,18.8-41,41.6-40.7C432.3,357,450.3,375.2,450.1,397.8z"/>
</g>
</svg>
