<?xml version="1.0" encoding="utf-8"?>
<!-- Generator: Adobe Illustrator 19.0.0, SVG Export Plug-In . SVG Version: 6.00 Build 0)  -->
<svg version="1.1" id="Layer_1" xmlns="http://www.w3.org/2000/svg" xmlns:xlink="http://www.w3.org/1999/xlink" x="0px" y="0px"
	 viewBox="0 0 500 500" style="enable-background:new 0 0 500 500;" xml:space="preserve">
<style type="text/css">
	.st0{fill:#FFFFFF;}
	.st1{display:none;opacity:4.000000e-002;}
	.st2{display:none;opacity:5.000000e-002;}
	.st3{opacity:5.000000e-002;}
	.st4{opacity:5.000000e-002;fill:#FFFFFF;}
</style>
<rect id="XMLID_1_" class="st0" width="500" height="500"/>
<path id="XMLID_3_" class="st1" d="M499,340.9c-32.5,20.2-65,40.6-97.4,60.9c-2.3,1.4-3.9,1.5-6.2,0c-43.5-27.3-87-54.5-130.6-81.6
	c-2-1.3-2.9-2.5-2.8-5c0.1-10.1,0.1-20.1,0.1-30.9c4.8,3,9,5.6,13.1,8.2c40.2,25.1,80.3,50.2,120.4,75.3c2.2,1.4,3.7,1.4,5.9,0
	c32.5-20.4,65-40.7,97.6-61.1v-56.6c-78.2,0-156.4,0-234.7,0c-12.3,0-22.5,4.2-29.5,14.3c-3.2,4.6-4.8,10.4-6.8,15.6
	c0,71,0,142.1,0,213.1c1,6.2,3.5,12.1,7.7,17c6.6,7.9,15,12.2,25.3,12.8c1.1,0.1,2.2,0.1,3.3,0.1c78.2,0,156.4,0,234.7,0V340.9z"/>
<path id="XMLID_21_" class="st2" d="M422.4,190.4c13.4,3.7,26.1,6.8,38.5,10.7c15.1,4.8,28.3,13.3,40.5,23.2
	c1.5,1.2,2.8,2.6,4.1,4.1c2.2,2.6,2.7,5.5,1,8.6c-7.3,13.1-14.4,26.3-21.9,39.4c-2.8,4.8-8.1,5-13.4,1.4
	c-6.5-4.5-12.9-9.4-19.8-13.2c-20.1-11.3-41.5-16.8-64.7-13.4c-12.3,1.8-23.4,6.4-32.6,15.1c-12.7,12-13.8,36,1.8,49.3
	c12.2,10.4,26.3,16.8,40.8,22.7c22.4,9.2,45.4,17.1,66.8,28.7c13.5,7.3,25.5,16.5,35.3,28.2c10.3,12.3,15.5,27.2,16.9,43.1
	c4.6,53.7-27.3,97.7-80.8,112c-2.8,0.8-5.7,1.6-8.6,1.9c-3.2,0.3-3.8,1.8-3.8,4.8c0.2,13.2,0.1,26.5,0.1,39.7
	c0,7.9-2.8,10.6-10.7,10.7c-10.4,0-20.8,0-31.2,0c-7,0-10.3-3.3-10.3-10.4c0-13.2-0.2-26.5,0.1-39.7c0.1-3.5-1.2-4.5-4.4-5.1
	c-27.1-4.6-52.1-14.5-74.2-31c-5.7-4.3-11.2-9-16.4-13.9c-4.6-4.3-4.7-8-1-12.9c8.4-11.2,16.9-22.3,25.5-33.4
	c3.9-5.1,8.7-5.6,13.6-1.3c16,13.8,33.7,24.7,54.3,30.4c15,4.2,30.2,6.2,45.6,2.4c11.5-2.9,22-7.9,29.5-17.7
	c12.1-15.9,9.4-38.2-7.1-49.4c-10.5-7.2-22.1-12.9-33.7-18.2c-21.4-9.8-43.5-18.2-64.8-28.4c-18.4-8.8-33.9-21.6-45.6-38.7
	c-7.9-11.7-11.6-24.8-13.1-38.6c-5-45.9,23.1-80.5,57.5-97c9.6-4.6,20.2-7.3,30.4-10.5c2.9-0.9,4.1-1.8,4-5
	c-0.2-13.5-0.1-27-0.1-40.5c0-8.1,3.1-11.2,11.2-11.2c10.3,0,20.5,0,30.8,0c7.3,0,10.3,3,10.3,10.3c0,13.2,0,26.5,0,39.7
	C422.4,188.4,422.4,189.8,422.4,190.4z"/>
<g id="XMLID_2_">
	<path id="XMLID_107_" class="st3" d="M565.8,396.9c-9.8,6.4-19.5,12.9-29.7,19.6c-6.4-9.8-12.8-19.6-19.4-29.6
		c2.1-1.5,4-2.8,6.4-4.5c3.9,5.9,7.6,11.7,11.5,17.7c8.4-33,2.8-105.4-57.8-152.5c1.5-2,3.1-4.1,5.1-6.8
		c50.6,42.2,70.5,95.6,61.8,160.7c6-3.9,11.8-7.6,17.6-11.3c1.5,2.1,3,4.1,4.5,6.1C565.8,396.4,565.8,396.6,565.8,396.9z"/>
	<path id="XMLID_104_" class="st3" d="M407.4,275.3c7.8,3.1,15.3,6.1,22.7,9.2c0.7,0.3,1.2,2,1.1,2.9c-0.6,4.1-1.3,8.2-2.3,12.3
		c-0.5,2,0.1,3,1.7,4.2c7.9,5.5,14.8,12.2,20.4,20c1.4,1.9,2.7,2.2,4.8,1.7c4.6-1.2,9.2-2,14.2-3.1c2.2,4.9,4.3,9.8,6.4,14.7
		c1.3,3,3.7,6.4,3.1,8.9c-0.6,2.4-4.5,4.1-7.2,5.6c-5,2.7-6.5,5.8-5.5,12c1.2,7.7,0.2,15.9-0.2,23.8c-0.1,1.8,0.1,2.9,1.7,3.8
		c4.3,2.6,8.5,5.4,13.1,8.4c-3.2,8.1-6.4,16-9.7,24.3c-4.8-0.9-9.6-1.8-14.3-2.7c-2.1-0.4-3.4,0-4.8,1.9c-5.4,7.9-12,14.6-19.7,20.2
		c-1.9,1.4-2.3,2.6-1.7,4.7c1,3.8,1.7,7.7,2.6,11.5c0.4,1.8,0.3,3.1-1.8,3.9c-7.1,2.9-14.1,6-21.4,9.2c-2.8-4-5.8-8-8.5-12.1
		c-1.2-1.8-2.4-2.4-4.7-1.9c-8.9,1.9-17.9,2.1-26.8,0.5c-2.8-0.5-4.5,0-6,2.6c-2.2,3.9-4.9,7.5-7.5,11.4c-8.1-3.2-16-6.4-24.3-9.7
		c0.9-5,1.7-9.9,2.7-14.8c0.4-1.8,0-2.8-1.5-3.9c-8.1-5.6-15.1-12.5-20.9-20.4c-1.1-1.5-2.1-2-3.9-1.5c-4.1,1.1-8.3,2-12.5,2.7
		c-1,0.2-2.7-0.5-3.1-1.3c-3.3-7.1-6.3-14.4-9.5-21.9c4.1-2.9,8.1-5.8,12.2-8.5c1.7-1.1,2.3-2.3,1.9-4.4c-2.1-9.5-1.9-19-0.4-28.5
		c0.3-1.9-0.1-2.8-1.7-3.8c-3.6-2.3-7.2-4.6-10.7-7.1c-0.7-0.5-1.5-1.9-1.2-2.6c2.9-7.6,6-15.2,9.1-22.9c5.1,0.9,10,1.7,14.8,2.8
		c1.8,0.4,2.8,0,3.9-1.5c5.5-8,12.3-15,20.2-20.7c1.8-1.3,2.1-2.6,1.6-4.6c-1.1-4.7-2.1-9.4-3.2-14.4c7.9-3.4,15.7-6.8,23.8-10.3
		c2.8,4.2,5.4,8.4,8.3,12.3c0.7,0.9,2.4,1.9,3.4,1.7c9.7-2,19.5-1.9,29.2-0.4c1.9,0.3,2.8-0.2,3.8-1.7
		C401.7,283.7,404.4,279.7,407.4,275.3z M424.6,457c-1-4.8-2-9.2-2.7-13.6c-0.2-1.1,0.4-3,1.2-3.5c10.6-6.5,18.7-15.4,25.2-25.9
		c1.3-2,2.4-2.4,4.6-1.8c3.5,0.9,7,1.6,10.6,2.1c1,0.1,2.7-0.2,3.1-0.9c1.6-3.4,2.9-6.9,4.4-10.5c-3.9-2.6-7.4-5.1-11.1-7.2
		c-2.3-1.3-2.9-2.8-2.3-5.4c2.6-11.7,2.4-23.5-0.5-35.1c-0.5-1.9-0.1-3.1,1.6-4.2c3.8-2.4,7.4-5,11.2-7.6c-1.5-3.4-3-6.6-4.3-9.8
		c-0.7-1.7-1.7-2.1-3.4-1.7c-3.8,0.8-7.7,1.5-11.6,2.4c-1.8,0.4-2.6-0.1-3.5-1.6c-6.4-10.8-15.2-19.1-26-25.5
		c-1.5-0.9-2-1.7-1.6-3.5c1-4.6,1.8-9.2,2.8-14c-4-1.6-7.9-3.2-11.8-4.8c-2.7,4.1-5.3,7.8-7.7,11.8c-1,1.7-2.1,2.2-4.1,1.8
		c-12.1-2.6-24.1-2.6-36.1,0.4c-1.9,0.5-2.8,0.1-3.8-1.5c-2.5-3.8-5.1-7.6-7.8-11.5c-4.2,1.9-8,3.7-11.8,5.5c1,4.8,2,9.2,2.7,13.6
		c0.2,1.1-0.4,3-1.3,3.5c-10.6,6.7-19,15.5-25.5,26.1c-1,1.7-2,2.1-3.8,1.6c-3.7-0.9-7.5-1.7-11.2-2.3c-1-0.1-2.7,0.5-3.1,1.3
		c-1.6,3.2-2.8,6.6-4.2,10c3.7,2.4,7.2,4.9,10.9,7.1c2.4,1.4,3.1,2.9,2.5,5.6c-2.5,11.6-2.4,23.3,0.5,34.8c0.6,2.3-0.1,3.5-2,4.6
		c-3.7,2.3-7.2,4.9-10.9,7.4c1.9,4.1,3.6,7.8,5.4,11.8c4.7-0.9,9.2-1.6,13.6-2.7c2.1-0.5,3,0.2,4,1.8c6.5,10.3,14.9,18.9,25.5,25.1
		c1.8,1.1,2.2,2.1,1.7,4c-1,4.5-1.8,9-2.7,13.5c3.5,1.4,6.7,2.9,10,4c0.9,0.3,2.5-0.4,3.1-1.1c2.2-3,4.2-6.1,6.1-9.3
		c1.2-2,2.3-2.9,4.8-2.1c3,0.9,6.2,1.2,9.3,1.5c9.7,1.1,19.3-0.1,28.8-2.7c3.1,4.5,6.1,8.9,9.2,13.4
		C416.8,460.6,420.6,458.8,424.6,457z"/>
	<path id="XMLID_103_" class="st3" d="M220.3,352.6c10.8-65,46.3-109.3,106.4-134.8c-6.1-3.1-12.3-6.2-18.8-9.5
		c1.2-2.3,2.4-4.5,3.7-7c5.3,2.6,10.5,5.2,15.7,7.8c5.1,2.6,10.2,5.1,15.6,7.9c-5.2,10.6-10.4,21.1-15.6,31.8
		c-2.4-1.2-4.5-2.4-7-3.7c3.1-6.3,6.2-12.5,9.4-18.8c-37.8,11.2-93.8,56.9-101.1,127.4C226.1,353.3,223.6,353,220.3,352.6z"/>
	<path id="XMLID_102_" class="st3" d="M442,515.8c0.5,2,1,4.2,1.7,6.9c-61.8,21.4-117.9,11.5-168.8-29.1c0,6.7,0,13.6,0,20.7
		c-2.3,0.1-4.7,0.3-7.6,0.5c-0.4-11.9-0.7-23.5-1.1-35.6c12-0.4,23.6-0.7,35.7-1.1c0.2,2.7,0.3,5.1,0.5,8
		c-6.9,0.4-13.7,0.8-20.5,1.2c-0.1,0.4-0.1,0.8-0.2,1.2C329.9,526.8,383.1,536.6,442,515.8z"/>
	<path id="XMLID_101_" class="st3" d="M431.2,214.6c2.7,1,5,1.9,7.5,2.9c-0.9,2.6-1.8,4.9-2.7,7.5c-2.6-0.9-4.9-1.7-7.5-2.6
		C429.4,219.9,430.2,217.5,431.2,214.6z"/>
	<path id="XMLID_100_" class="st3" d="M227.7,364.2c0,2.6,0,5.1,0,7.7c-2.6,0-5,0-7.7,0c0-2.5,0-5,0-7.7
		C222.4,364.2,224.8,364.2,227.7,364.2z"/>
	<path id="XMLID_99_" class="st3" d="M229.6,400.3c2.8,7,1.4,8.9-6.2,8.6c-0.5-2.3-0.9-4.7-1.5-7.5
		C224.7,401,227.2,400.6,229.6,400.3z"/>
	<path id="XMLID_98_" class="st3" d="M462,514.5c-2.5,1.3-4.6,2.4-7.1,3.7c-1.3-2.4-2.4-4.5-3.7-6.9c2.3-1.3,4.5-2.4,7-3.7
		C459.5,509.8,460.6,511.9,462,514.5z"/>
	<path id="XMLID_97_" class="st3" d="M472.8,234.7c-1.5,2.3-2.9,4.3-4.3,6.5c-2.3-1.3-4.3-2.4-6.5-3.7c1.3-2.4,2.4-4.6,3.8-7.1
		C468.1,231.9,470.3,233.2,472.8,234.7z"/>
	<path id="XMLID_96_" class="st3" d="M228.3,382.5c0.1,2.6,0.2,4.9,0.3,7.5c-2.6,0.3-5,0.6-7.7,1c-0.2-2.8-0.4-5.2-0.7-8
		C223,382.8,225.5,382.7,228.3,382.5z"/>
	<path id="XMLID_95_" class="st3" d="M492.7,492.6c-2,1.8-3.8,3.5-5.9,5.4c-1.6-2.1-3.2-4.1-4.9-6.4c2-1.6,3.9-3.2,5.9-4.8
		C489.5,488.7,491,490.5,492.7,492.6z"/>
	<path id="XMLID_94_" class="st3" d="M448.4,221.4c2.7,1.3,4.9,2.5,7.5,3.7c-1.3,2.2-2.4,4.2-3.7,6.4c-2.4-1.1-4.6-2.1-7-3.3
		C446.3,225.9,447.3,223.8,448.4,221.4z"/>
	<path id="XMLID_93_" class="st3" d="M471.1,508.4c-1.5-2.3-2.8-4.2-4.3-6.4c2.1-1.4,4.1-2.7,6.4-4.3c1.4,2.1,2.8,4.1,4.3,6.4
		C475.5,505.5,473.5,506.8,471.1,508.4z"/>
	<path id="XMLID_87_" class="st3" d="M438.2,374.6c-0.2,31.1-25.6,55.7-57.4,55.4c-31-0.2-55.6-25.4-55.3-56.7
		c0.3-30.9,25.9-55.7,57.2-55.3C414,318.4,438.4,343.4,438.2,374.6z M430.1,374.3c0.1-26.6-20.9-47.9-47.6-48.2
		c-26.8-0.3-48.7,21.2-48.8,47.8c-0.1,26.8,21,48.4,47.6,48.5C408.4,422.6,430,401.3,430.1,374.3z"/>
	<path id="XMLID_86_" class="st4" d="M430.1,374.3c-0.1,27-21.7,48.4-48.8,48.2c-26.6-0.2-47.7-21.7-47.6-48.5
		c0.1-26.6,22-48.1,48.8-47.8C409.2,326.4,430.3,347.7,430.1,374.3z"/>
</g>
</svg>
