<?xml version="1.0" encoding="utf-8"?>
<!-- Generator: Adobe Illustrator 19.0.0, SVG Export Plug-In . SVG Version: 6.00 Build 0)  -->
<svg version="1.1" id="Layer_1" xmlns="http://www.w3.org/2000/svg" xmlns:xlink="http://www.w3.org/1999/xlink" x="0px" y="0px"
	 viewBox="0 0 1920 1080" style="enable-background:new 0 0 1920 1080;" xml:space="preserve">
<style type="text/css">
	.st0{fill:#F5F6FA;}
	.st1{fill:none;stroke:#C4C4C4;stroke-width:8;stroke-miterlimit:10;stroke-dasharray:12;}
	.st2{opacity:0.2;}
	.st3{opacity:0.1;}
	.st4{opacity:8.000000e-002;}
</style>
<rect id="Background" y="0" class="st0" width="1920" height="1080"/>
<path id="XMLID_3_" class="st1" d="M9.9,170.2c0,0,196.7,178.1,281.1,322.8c81,138.9,102,202,112,222s48,70,62,84s50,38,68,48
	s66,40,194,0s236-187,312-306.5S1189,351,1233,341s113.1-30.4,170,10c138,98,210.5,350.7,270,440c32,48,146,110,226,86"/>
<g id="XMLID_8_" class="st2">
	<g id="XMLID_9_">
		<path id="XMLID_13_" d="M1093.4,399.9l-4,1.3c-1-1-2.2-1.9-3.4-2.7l0.5-4.1c0.2-1.8-0.9-3.4-2.6-3.9l-5-1.5
			c-0.9-0.3-1.9-0.2-2.8,0.3c-0.7,0.4-1.2,0.9-1.5,1.6l-1.9,3.8c-1.5,0-3,0.2-4.5,0.5l-2.5-3.3c-1.1-1.4-3-1.8-4.6-1l-4.6,2.4
			c-1.6,0.8-2.3,2.7-1.7,4.4l1.3,4c-1,1-1.9,2.2-2.7,3.4l-4.1-0.5c-0.8-0.1-1.5,0-2.2,0.4c-0.9,0.5-1.5,1.2-1.8,2.2l-1.5,5
			c-0.5,1.7,0.3,3.5,1.9,4.3l3.8,1.9c0,1.5,0.2,2.9,0.5,4.3l-3.3,2.5c-1.4,1.1-1.8,3-1,4.6l2.4,4.6c0.8,1.6,2.7,2.3,4.4,1.7l4-1.3
			c1,1,2.2,1.9,3.4,2.7l-0.5,4.1c-0.2,1.8,0.9,3.4,2.6,3.9l5,1.5c0.9,0.3,1.9,0.2,2.8-0.3c0.7-0.4,1.2-0.9,1.5-1.6l1.9-3.8
			c1.4,0,2.8-0.2,4.2-0.4l2.6,3.3c1.1,1.4,3,1.8,4.6,1l4.6-2.5c1.6-0.8,2.3-2.7,1.7-4.4l-1.3-4c1-1,1.9-2.2,2.7-3.4l4.1,0.5
			c0.8,0.1,1.5,0,2.2-0.4l0,0c0.9-0.5,1.5-1.2,1.8-2.2l1.5-5c0.5-1.7-0.3-3.5-1.9-4.3l-3.8-1.9c0-1.5-0.2-2.9-0.4-4.3l3.3-2.6
			c1.4-1.1,1.8-3,1-4.6l-2.4-4.6C1096.9,400.1,1095.1,399.4,1093.4,399.9z M1097.3,407.8c0.1,0.1,0,0.3-0.1,0.4l-4.1,3.2
			c-0.5,0.4-0.7,1.1-0.6,1.7c0.4,1.8,0.6,3.7,0.6,5.5c0,0.7,0.3,1.3,0.9,1.6l4.7,2.3c0.1,0.1,0.2,0.2,0.2,0.4l-1.5,5
			c0,0.1-0.1,0.2-0.2,0.2c-0.1,0-0.1,0-0.2,0l-5.2-0.7c-0.6-0.1-1.3,0.2-1.6,0.8c-1,1.6-2.2,3.1-3.5,4.3c-0.5,0.4-0.7,1.1-0.4,1.7
			l1.7,5c0.1,0.2,0,0.3-0.2,0.4l-4.6,2.4c-0.1,0.1-0.3,0-0.4-0.1l-3.2-4.1c-0.4-0.5-1.1-0.7-1.7-0.6c-1.8,0.4-3.6,0.6-5.4,0.6
			c-0.3,0-0.6,0.1-0.8,0.2c-0.3,0.2-0.5,0.4-0.7,0.7l-2.3,4.7c0,0.1-0.1,0.1-0.1,0.1c0,0-0.1,0.1-0.3,0l-5-1.5
			c-0.1,0-0.2-0.2-0.2-0.4l0.7-5.2c0.1-0.7-0.2-1.3-0.8-1.6c-1.6-1-3.1-2.1-4.3-3.5c-0.4-0.5-1.1-0.6-1.7-0.4l-5,1.7
			c-0.2,0.1-0.3,0-0.4-0.2l-2.4-4.6c-0.1-0.1,0-0.3,0.1-0.4l4.1-3.2c0.5-0.4,0.8-1.1,0.6-1.7c-0.5-1.8-0.7-3.7-0.6-5.5
			c0-0.7-0.3-1.3-0.9-1.5l-4.7-2.3c-0.1-0.1-0.2-0.2-0.2-0.4l1.5-5c0-0.1,0.1-0.2,0.2-0.2c0.1,0,0.1,0,0.2,0l5.2,0.7
			c0.7,0.1,1.3-0.2,1.6-0.8c1-1.6,2.1-3.1,3.5-4.3c0.5-0.4,0.6-1.1,0.4-1.7l-1.7-5c-0.1-0.2,0-0.3,0.2-0.4l4.6-2.4
			c0.1-0.1,0.3,0,0.4,0.1l3.2,4.1c0.4,0.5,1.1,0.8,1.7,0.6c1.9-0.5,3.8-0.7,5.7-0.6c0.7,0,1.3-0.3,1.6-0.9l2.3-4.7
			c0-0.1,0.1-0.1,0.1-0.1c0,0,0.1-0.1,0.3,0l5,1.5c0.1,0,0.2,0.2,0.2,0.4l-0.7,5.2c-0.1,0.6,0.2,1.3,0.8,1.6c1.6,1,3.1,2.2,4.3,3.5
			c0.4,0.5,1.1,0.7,1.7,0.4l5-1.7c0.2-0.1,0.3,0,0.4,0.2L1097.3,407.8L1097.3,407.8z"/>
		<path id="XMLID_10_" d="M1067.1,406.7c-6.2,3.3-8.5,11-5.2,17.2c3.3,6.2,11,8.5,17.2,5.2c6.2-3.3,8.5-11,5.2-17.2
			C1080.9,405.7,1073.2,403.4,1067.1,406.7z M1077.5,426.1c-4.6,2.4-10.2,0.7-12.7-3.8c-2.4-4.6-0.7-10.2,3.8-12.7
			c4.6-2.4,10.2-0.7,12.7,3.8C1083.8,418,1082.1,423.7,1077.5,426.1z"/>
	</g>
</g>
<g id="XMLID_5_" class="st2">
	<g id="XMLID_6_">
		<path id="XMLID_22_" d="M866.6,882.5l-7.8-1.3c-0.8-2.6-1.9-5.2-3.1-7.6l4.6-6.5c2-2.8,1.7-6.5-0.7-8.9l-7-7c-1.3-1.3-3-2-4.9-2
			c-1.4,0-2.8,0.4-4,1.3l-6.5,4.6c-2.5-1.3-5.2-2.4-7.9-3.2l-1.3-7.7c-0.6-3.3-3.4-5.8-6.8-5.8h-9.8c-3.4,0-6.3,2.4-6.8,5.8
			l-1.4,7.9c-2.6,0.8-5.2,1.9-7.6,3.2l-6.4-4.6c-1.2-0.8-2.6-1.3-4-1.3c-1.8,0-3.6,0.7-4.9,2l-7,7c-2.4,2.4-2.7,6.1-0.7,8.9l4.7,6.6
			c-1.3,2.4-2.3,5-3.1,7.6l-7.7,1.3c-3.3,0.6-5.8,3.4-5.8,6.8v9.8c0,3.4,2.4,6.3,5.8,6.8l7.9,1.4c0.8,2.6,1.9,5.2,3.2,7.6l-4.6,6.4
			c-2,2.8-1.7,6.5,0.7,8.9l7,7c1.3,1.3,3,2,4.9,2c1.4,0,2.8-0.4,4-1.3l6.6-4.7c2.4,1.2,4.8,2.2,7.4,3l1.3,7.8
			c0.6,3.3,3.4,5.8,6.8,5.8h9.8c3.4,0,6.3-2.4,6.8-5.8l1.3-7.8c2.6-0.8,5.2-1.9,7.6-3.1l6.5,4.6c1.2,0.8,2.6,1.3,4,1.3l0,0
			c1.8,0,3.6-0.7,4.9-2l7-7c2.4-2.4,2.7-6.1,0.7-8.9l-4.6-6.5c1.3-2.4,2.4-5,3.1-7.6l7.8-1.3c3.3-0.6,5.8-3.4,5.8-6.8v-9.8
			C872.3,886,869.9,883.1,866.6,882.5z M866,899.2c0,0.3-0.2,0.6-0.5,0.6l-9.8,1.6c-1.2,0.2-2.2,1.1-2.5,2.3
			c-0.9,3.4-2.2,6.7-4.1,9.8c-0.6,1.1-0.6,2.4,0.1,3.4l5.8,8.1c0.2,0.2,0.1,0.6-0.1,0.8l-7,7c-0.2,0.2-0.3,0.2-0.4,0.2
			c-0.1,0-0.3,0-0.3-0.1l-8.1-5.8c-1-0.7-2.4-0.8-3.4-0.1c-3.1,1.8-6.3,3.2-9.8,4.1c-1.2,0.3-2.1,1.3-2.3,2.5l-1.7,9.8
			c0,0.3-0.3,0.5-0.6,0.5h-9.8c-0.3,0-0.6-0.2-0.6-0.5l-1.6-9.8c-0.2-1.2-1.1-2.2-2.3-2.5c-3.3-0.9-6.6-2.2-9.6-3.9
			c-0.5-0.3-1-0.4-1.6-0.4c-0.6,0-1.3,0.2-1.8,0.6l-8.2,5.8c-0.1,0.1-0.2,0.1-0.3,0.1c-0.1,0-0.3,0-0.4-0.2l-7-7
			c-0.2-0.2-0.2-0.5-0.1-0.8l5.7-8c0.7-1,0.8-2.4,0.1-3.5c-1.8-3-3.2-6.3-4.1-9.7c-0.3-1.2-1.3-2.1-2.5-2.3l-9.9-1.7
			c-0.3,0-0.5-0.3-0.5-0.6v-9.8c0-0.3,0.2-0.6,0.5-0.6l9.7-1.6c1.2-0.2,2.2-1.1,2.5-2.3c0.9-3.4,2.2-6.7,4-9.8
			c0.6-1.1,0.6-2.4-0.2-3.4l-5.8-8.2c-0.2-0.2-0.1-0.6,0.1-0.8l7-7c0.2-0.2,0.3-0.2,0.4-0.2c0.1,0,0.3,0,0.3,0.1l8,5.7
			c1,0.7,2.4,0.8,3.5,0.1c3-1.8,6.3-3.2,9.7-4.1c1.2-0.3,2.1-1.3,2.3-2.5l1.7-9.9c0-0.3,0.3-0.5,0.6-0.5h9.8c0.3,0,0.6,0.2,0.6,0.5
			l1.6,9.7c0.2,1.2,1.1,2.2,2.3,2.5c3.5,0.9,6.9,2.3,10,4.1c1.1,0.6,2.4,0.6,3.4-0.1l8-5.8c0.1-0.1,0.2-0.1,0.3-0.1
			c0.1,0,0.3,0,0.4,0.2l7,7c0.2,0.2,0.2,0.5,0.1,0.8l-5.8,8.1c-0.7,1-0.8,2.4-0.1,3.4c1.8,3.1,3.2,6.3,4.1,9.8
			c0.3,1.2,1.3,2.1,2.5,2.3l9.8,1.7c0.3,0,0.5,0.3,0.5,0.6L866,899.2L866,899.2z"/>
		<path id="XMLID_7_" d="M816.5,870.1c-13.3,0-24.1,10.8-24.1,24.1c0,13.3,10.8,24.1,24.1,24.1c13.3,0,24.1-10.8,24.1-24.1
			C840.6,880.9,829.8,870.1,816.5,870.1z M816.5,912c-9.8,0-17.8-8-17.8-17.8c0-9.8,8-17.8,17.8-17.8c9.8,0,17.8,8,17.8,17.8
			C834.3,904.1,826.3,912,816.5,912z"/>
	</g>
</g>
<g id="XMLID_25_" class="st3">
	<g id="XMLID_26_">
		<path id="XMLID_40_" d="M1050.3,439.6l-7.9,0.7c-1.5-2.3-3.1-4.5-5-6.5l2.8-7.4c1.2-3.2-0.1-6.7-3-8.4l-8.5-4.9
			c-1.6-0.9-3.5-1.2-5.2-0.7c-1.4,0.4-2.6,1.2-3.5,2.3l-5.1,6.1c-2.8-0.6-5.6-1-8.5-1.1l-3.3-7.1c-1.4-3.1-4.8-4.7-8.1-3.8l-9.5,2.5
			c-3.3,0.9-5.4,4-5.1,7.3l0.7,8c-2.3,1.5-4.5,3.2-6.5,5l-7.4-2.8c-1.3-0.5-2.8-0.6-4.2-0.2c-1.8,0.5-3.3,1.6-4.2,3.2l-4.9,8.5
			c-1.7,2.9-1,6.6,1.6,8.8l6.2,5.1c-0.6,2.7-0.9,5.4-1,8.2l-7.1,3.3c-3.1,1.4-4.7,4.8-3.8,8.1l2.5,9.5c0.9,3.3,4,5.4,7.3,5.1l8-0.7
			c1.5,2.3,3.2,4.5,5,6.5l-2.8,7.4c-1.2,3.2,0.1,6.7,3,8.4l8.5,4.9c1.6,0.9,3.5,1.2,5.2,0.7c1.4-0.4,2.6-1.2,3.5-2.3l5.1-6.2
			c2.6,0.6,5.2,0.9,7.9,1l3.3,7.2c1.4,3.1,4.8,4.7,8.1,3.8l9.5-2.5c3.3-0.9,5.4-4,5.1-7.3l-0.7-7.9c2.3-1.5,4.5-3.1,6.5-5l7.4,2.8
			c1.3,0.5,2.8,0.6,4.2,0.2l0,0c1.8-0.5,3.3-1.6,4.2-3.2l4.9-8.5c1.7-2.9,1-6.6-1.6-8.8l-6.1-5.1c0.6-2.7,1-5.4,1.1-8.2l7.2-3.3
			c3.1-1.4,4.7-4.8,3.8-8.1l-2.5-9.5C1056.8,441.4,1053.7,439.2,1050.3,439.6z M1054.1,455.8c0.1,0.3-0.1,0.6-0.3,0.7l-9,4.1
			c-1.1,0.5-1.9,1.7-1.8,2.9c0,3.5-0.4,7.1-1.4,10.5c-0.3,1.2,0.1,2.5,1,3.3l7.7,6.4c0.2,0.2,0.3,0.5,0.1,0.8l-4.9,8.5
			c-0.1,0.2-0.3,0.3-0.4,0.3c-0.1,0-0.3,0-0.4,0l-9.3-3.5c-1.2-0.4-2.5-0.1-3.3,0.8c-2.5,2.5-5.3,4.7-8.4,6.4
			c-1.1,0.6-1.7,1.8-1.6,3l0.9,9.9c0,0.3-0.2,0.6-0.5,0.7l-9.5,2.5c-0.3,0.1-0.6-0.1-0.7-0.3l-4.1-9c-0.5-1.1-1.7-1.9-2.9-1.8
			c-3.4,0-6.9-0.4-10.3-1.3c-0.5-0.1-1.1-0.1-1.6,0c-0.6,0.2-1.2,0.5-1.6,1l-6.4,7.7c-0.1,0.1-0.2,0.2-0.3,0.2c-0.1,0-0.3,0-0.5-0.1
			l-8.5-4.9c-0.3-0.1-0.4-0.5-0.3-0.7l3.5-9.3c0.4-1.2,0.1-2.5-0.8-3.4c-2.5-2.5-4.7-5.3-6.5-8.4c-0.6-1.1-1.8-1.7-3-1.6l-10,0.9
			c-0.3,0-0.6-0.2-0.7-0.5l-2.5-9.5c-0.1-0.3,0.1-0.6,0.3-0.7l9-4.1c1.1-0.5,1.9-1.7,1.9-2.9c-0.1-3.5,0.4-7.1,1.3-10.5
			c0.3-1.2-0.1-2.5-1-3.2l-7.7-6.4c-0.2-0.2-0.3-0.5-0.1-0.8l4.9-8.5c0.1-0.2,0.3-0.3,0.4-0.3c0.1,0,0.3,0,0.4,0l9.3,3.5
			c1.2,0.4,2.5,0.1,3.4-0.8c2.5-2.5,5.3-4.7,8.4-6.5c1.1-0.6,1.7-1.8,1.6-3l-0.9-10c0-0.3,0.2-0.6,0.5-0.7l9.5-2.5
			c0.3-0.1,0.6,0.1,0.7,0.3l4.1,9c0.5,1.1,1.7,1.9,2.9,1.9c3.6-0.1,7.2,0.4,10.7,1.4c1.2,0.3,2.5-0.1,3.3-1l6.3-7.7
			c0.1-0.1,0.2-0.2,0.3-0.2c0.1,0,0.3,0,0.5,0.1l8.5,4.9c0.3,0.1,0.4,0.5,0.3,0.7l-3.5,9.3c-0.4,1.2-0.1,2.5,0.8,3.3
			c2.5,2.5,4.7,5.3,6.4,8.4c0.6,1.1,1.8,1.7,3,1.6l9.9-0.9c0.3,0,0.6,0.2,0.7,0.5L1054.1,455.8L1054.1,455.8z"/>
		<path id="XMLID_27_" d="M998.7,440.6c-12.8,3.4-20.5,16.7-17,29.5s16.7,20.5,29.5,17s20.5-16.7,17-29.5S1011.6,437.1,998.7,440.6z
			 M1009.6,481c-9.5,2.5-19.3-3.1-21.8-12.6s3.1-19.3,12.6-21.8c9.5-2.5,19.3,3.1,21.8,12.6C1024.7,468.7,1019,478.5,1009.6,481z"/>
	</g>
</g>
<path id="XMLID_20_" class="st3" d="M181.5,698.4l-33.6-5.7c-3.5-11.3-8-22.2-13.5-32.6l19.8-27.7c8.4-11.8,7.1-27.9-3.2-38.1
	l-29.8-29.8c-5.6-5.6-13-8.7-20.9-8.7c-6.2,0-12.1,1.9-17.1,5.5l-27.8,19.8c-10.8-5.7-22.1-10.4-33.8-13.9L16,534
	c-1.5-9.2-7.2-16.8-15-21.1v75.1c1.6,1.4,3.5,2.4,5.6,2.9c15.1,3.8,29.5,9.7,42.9,17.6c4.6,2.7,10.3,2.5,14.7-0.6l34.5-24.8
	c0.5-0.3,1-0.5,1.5-0.5c0.4,0,1.2,0.1,1.9,0.8l29.8,29.8c0.9,0.9,1,2.3,0.3,3.4l-24.7,34.7c-3.1,4.3-3.3,10.1-0.6,14.7
	c7.8,13.1,13.6,27.2,17.4,41.9c1.3,5.2,5.6,9.1,10.8,9.9l41.9,7.1c1.3,0.2,2.1,1.3,2.1,2.6V770h0.2c0,1-0.9,2.2-2.2,2.4l-42,6.9
	c-5.3,0.9-9.5,4.8-10.8,9.9c-3.8,14.7-9.6,28.8-17.4,41.9c-2.7,4.6-2.5,10.3,0.6,14.7l24.7,34.8c0.7,1,0.6,2.5-0.3,3.4L102,913.8
	c-0.7,0.7-1.4,0.8-1.9,0.8c-0.6,0-1.1-0.2-1.5-0.5l-34.7-24.7c-4.3-3.1-10.1-3.3-14.7-0.6c-13.1,7.8-27.2,13.6-41.9,17.4
	c-2.4,0.6-4.6,1.9-6.3,3.6v75c8.2-4.1,14.3-12,15.9-21.5l5.7-33.6c11.3-3.5,22.2-8,32.6-13.5L82.9,936c5,3.6,11,5.5,17.2,5.5
	c7.9,0,15.3-3.1,20.9-8.7l29.8-29.8c10.2-10.2,11.6-26.3,3.2-38.1l-19.8-27.8c5.5-10.5,10.1-21.4,13.5-32.6l33.6-5.6
	c14.3-2.4,24.7-14.7,24.7-29.2v-42.1C206,713.1,195.8,700.8,181.5,698.4z"/>
<path id="XMLID_44_" class="st4" d="M1920,581.7l-3.6,17.3h-34.8l-5.3-25.3c-1.6-7.8-7.8-13.9-15.6-15.3c-11.6-2.1-22.9-5.3-34-9.3
	h0c-7.5-2-15.8-0.4-21.1,5.5l-18.3,20.5c-10.2-5.1-20-10.8-29.3-17.2l8.5-25.7c2.5-7.5,0.1-15.8-5.9-21c-9-7.6-17.3-15.9-24.9-24.9
	c-5.1-6-13.4-8.4-21-5.9l-25.7,8.5c-6.4-9.4-12.1-19.2-17.2-29.3l20.4-18.3c5.9-5.3,8-13.7,5.3-21.1c-4-11-7.1-22.4-9.2-33.9
	c-1.4-7.8-7.4-14-15.1-15.6l-25.2-5.3v-34.8l25.2-5.3c7.8-1.6,13.7-7.8,15.1-15.6c2.1-11.6,5.2-22.9,9.1-34
	c2.7-7.5,0.6-15.8-5.4-21.1l-20.4-18.3c5.1-10.2,10.8-20,17.2-29.3l25.7,8.5c7.5,2.5,15.8,0.1,21-5.9c7.6-9,15.9-17.3,24.9-24.9
	c6-5.1,8.4-13.4,5.9-21l-8.5-25.7c9.4-6.4,19.2-12.1,29.3-17.2l18.3,20.4c5.3,5.9,13.7,8,21.1,5.3c11-4,22.4-7.1,33.9-9.2
	c7.8-1.4,14-7.2,15.6-14.9l5.3-25h34.8l3.6,16.6V58h-54.2c-9.2,0-17.2,6.2-19.1,15.2l-5.9,28.1c-4.9,1.2-9.8,2.4-14.6,3.9
	l-19.4-21.7c-5.6-6.2-14.5-8.2-22.2-4.9c-21.8,9.4-42.4,21.4-61.3,35.8c-6.7,5-9.4,13.7-6.8,21.7l8.9,27.2
	c-3.7,3.5-7.3,7.1-10.7,10.7l-27.2-8.9c-7.9-2.6-16.6,0.2-21.6,6.8c-14.4,18.9-26.4,39.5-35.8,61.3c-3.3,7.7-1.3,16.6,4.9,22.2
	l21.7,19.4c-1.5,4.9-2.8,9.7-4,14.6l-28.2,5.9c-9,1.9-15.4,9.9-15.4,19.1v66.5c0,9.2,6.4,17.2,15.4,19.1l28.2,5.9
	c1.2,4.9,2.5,9.8,3.9,14.6l-21.7,19.4c-6.2,5.6-8.2,14.5-4.9,22.2c9.4,21.8,21.4,42.4,35.8,61.3c5,6.7,13.7,9.4,21.7,6.8l27.2-8.9
	c3.5,3.7,7.1,7.3,10.7,10.7l-8.9,27.2c-2.6,7.9,0.1,16.6,6.8,21.6c18.9,14.4,39.5,26.4,61.3,35.8c7.7,3.3,16.6,1.3,22.2-4.9
	l19.4-21.7c4.9,1.5,9.7,2.8,14.6,4l5.9,28.4c1.9,9,9.9,15.6,19.1,15.6h54.2V581.7z"/>
</svg>
