<svg id="Layer_1" data-name="Layer 1" xmlns="http://www.w3.org/2000/svg" width="40" height="40" viewBox="0 0 40 40"><defs><style>.cls-1{fill:#1d4354;}.cls-2{fill:#fff;}.cls-3{fill:#d1d1d1;}.cls-4{fill:#b2b2b2;}.cls-5{fill:#e0e0e0;}.cls-6{fill:#6fda44;}</style></defs><title>svg</title><rect class="cls-1" x="1.73" y="3.22" width="34.66" height="29.53" rx="0.5"/><rect class="cls-2" x="4.61" y="6.35" width="28.89" height="23.26"/><rect class="cls-3" y="32.61" width="38.11" height="4.27" rx="0.5"/><rect class="cls-4" x="17.45" y="32.61" width="5.22" height="1.7"/><path class="cls-5" d="M24.07,16.8h-14a.45.45,0,0,1,0-.9h14a.45.45,0,1,1,0,.9Z"/><path class="cls-5" d="M12.72,13.69H10.09a.45.45,0,1,1,0-.9h2.63a.45.45,0,0,1,0,.9Z"/><path class="cls-5" d="M24.07,13.69H14.89a.45.45,0,0,1,0-.9h9.18a.45.45,0,1,1,0,.9Z"/><path class="cls-5" d="M18.43,19.92H10.09a.46.46,0,0,1-.45-.46.45.45,0,0,1,.45-.45h8.34a.46.46,0,0,1,.46.45A.47.47,0,0,1,18.43,19.92Z"/><path class="cls-5" d="M15.88,23H10.09a.46.46,0,0,1,0-.91h5.79a.46.46,0,0,1,0,.91Z"/><path class="cls-6" d="M8.31,13.69H7.44a.45.45,0,1,1,0-.9h.87a.45.45,0,0,1,0,.9Z"/><path class="cls-6" d="M8.31,16.8H7.44a.45.45,0,1,1,0-.9h.87a.45.45,0,0,1,0,.9Z"/><path class="cls-6" d="M8.31,19.92H7.44A.47.47,0,0,1,7,19.46.46.46,0,0,1,7.44,19h.87a.45.45,0,0,1,.45.45A.46.46,0,0,1,8.31,19.92Z"/><path class="cls-6" d="M8.31,23H7.44a.46.46,0,1,1,0-.91h.87a.46.46,0,0,1,0,.91Z"/><rect class="cls-1" x="23.61" y="11" width="16.39" height="25.89" rx="0.5"/><rect class="cls-2" x="25.63" y="14.21" width="12.35" height="19.1"/><ellipse class="cls-6" cx="31.81" cy="35.12" rx="1" ry="1.01"/><path class="cls-2" d="M33,12.93H30.62a.24.24,0,0,1-.24-.24.23.23,0,0,1,.24-.23H33a.23.23,0,0,1,.23.23A.23.23,0,0,1,33,12.93Z"/><path class="cls-6" d="M29.78,22.23a.35.35,0,0,0-.1-.24.36.36,0,0,0-.49,0l-1.53,1.53a.34.34,0,0,0,0,.48l1.53,1.53a.33.33,0,0,0,.25.1.33.33,0,0,0,.24-.1.34.34,0,0,0,0-.48l-1.29-1.29,1.29-1.29A.37.37,0,0,0,29.78,22.23Z"/><path class="cls-6" d="M36,23.52,34.42,22a.34.34,0,0,0-.48,0,.31.31,0,0,0-.1.24.33.33,0,0,0,.1.24l1.29,1.29-1.29,1.29a.34.34,0,0,0,0,.48.34.34,0,0,0,.48,0L36,24a.34.34,0,0,0,0-.48Z"/><path class="cls-6" d="M32.84,22.05a.33.33,0,0,0-.26,0,.39.39,0,0,0-.21.15L30.66,25a.34.34,0,0,0,0,.26.32.32,0,0,0,.15.21.41.41,0,0,0,.18.05.32.32,0,0,0,.29-.17L33,22.52a.39.39,0,0,0,0-.26A.37.37,0,0,0,32.84,22.05Z"/></svg>