<svg id="Layer_1" data-name="Layer 1" xmlns="http://www.w3.org/2000/svg" width="40" height="40" viewBox="0 0 40 40"><defs><style>.cls-1{fill:#f2f2f2;}.cls-2{fill:#1d4354;}.cls-3{fill:#fff;}.cls-4{fill:#6fda44;}.cls-5{fill:#d1d1d1;}</style></defs><title>svg</title><rect class="cls-1" y="3.22" width="30.66" height="33.78" rx="0.5"/><polygon class="cls-2" points="14.21 27.33 17.25 30.28 28.11 19.46 24.67 16.13 14.21 27.33"/><polygon class="cls-3" points="12.22 31.47 13.17 32.4 17.25 30.27 14.22 27.34 12.22 31.47"/><polygon class="cls-2" points="38.74 8.09 35.7 5.14 24.85 15.94 28.28 19.27 38.74 8.09"/><path class="cls-2" d="M37.88,10.28a17.5,17.5,0,0,1-5.8,6.89,22.43,22.43,0,0,1-2.19,1.43l.8.78s5.18-1.91,9.23-9.43a.72.72,0,0,0-.13-.84L38.3,7.67,36.79,9.22Z"/><polyline class="cls-3" points="28.35 19.22 24.9 15.88 24.55 16.23 28 19.58"/><path class="cls-2" d="M13.69,32.13,12.47,31l-.67,1.41a.4.4,0,0,0,.51.5Z"/><path class="cls-4" d="M35.68,5.12a2.14,2.14,0,0,1,3.08,3Z"/><path class="cls-5" d="M16.39,12.81H4.75a.61.61,0,0,1,0-1.21H16.39a.61.61,0,0,1,0,1.21Z"/><path class="cls-5" d="M15.39,17.26H4.75a.6.6,0,0,1,0-1.2H15.39a.6.6,0,1,1,0,1.2Z"/><path class="cls-5" d="M13.39,21.71H4.75a.6.6,0,1,1,0-1.2h8.64a.6.6,0,1,1,0,1.2Z"/></svg>