<svg id="Layer_1" data-name="Layer 1" xmlns="http://www.w3.org/2000/svg" width="40" height="40" viewBox="0 0 40 40"><defs><style>.cls-1{fill:#e0e0e0;}.cls-2{fill:#fff;}.cls-3{fill:#33637a;}.cls-4{fill:#1d4354;}.cls-5{fill:#6fda44;}</style></defs><title>svg</title><path class="cls-1" d="M34.52,13.64a6.16,6.16,0,0,0,1.5-6,.36.36,0,0,0-.6-.16l-1.86,1.9A2.48,2.48,0,0,1,30,5.9L31.88,4a.37.37,0,0,0-.17-.61,6.15,6.15,0,0,0-7.29,8.24h0L5,31.05a2.47,2.47,0,0,0,3.53,3.46L28,15.09h0A6.16,6.16,0,0,0,34.52,13.64Z"/><circle class="cls-2" cx="7.03" cy="32.5" r="0.9"/><rect class="cls-3" x="6.78" y="16.27" width="19.17" height="1.54" transform="translate(15.89 40.67) rotate(-135)"/><polygon class="cls-4" points="5.69 4.37 9.35 7.73 10.45 9.65 9 11.1 7.07 10.04 3.73 6.33 5.69 4.37"/><path class="cls-5" d="M26.18,16.73h0a4.1,4.1,0,0,1,4.1,4.1V36.48a.5.5,0,0,1-.5.5H22.57a.5.5,0,0,1-.5-.5V20.84a4.1,4.1,0,0,1,4.1-4.1Z" transform="translate(-11.32 26.37) rotate(-45)"/></svg>