<svg id="Layer_1" data-name="Layer 1" xmlns="http://www.w3.org/2000/svg" width="40" height="40" viewBox="0 0 40 40"><defs><style>.cls-1{fill:#1d4354;}.cls-2{fill:#33637a;}.cls-3{fill:#336278;}.cls-4{fill:#6fda44;}</style></defs><title>svg</title><path class="cls-1" d="M33.61,21.52V16.85a13.64,13.64,0,1,0-27.27,0v3.76l1.88,1.51V16.87a11.76,11.76,0,0,1,23.51,0v4.19Z"/><path class="cls-2" d="M7.71,32H6.5c-1.83,0-2.79-2.55-2.79-5.7s1.06-5.7,2.79-5.7H7.71"/><path class="cls-3" d="M7.71,32.16H6.5c-1.79,0-2.94-2.3-2.94-5.85s1.21-5.85,2.94-5.85H7.71v.3H6.5c-1.53,0-2.64,2.33-2.64,5.55,0,2.76.82,5.55,2.64,5.55H7.71Z"/><path class="cls-4" d="M18.9,35.9a.46.46,0,0,1-.45-.46A.45.45,0,0,1,18.9,35l10.21,0c2.61,0,3.16-1.47,3.16-2.7v-.42a.46.46,0,0,1,.91,0v.42c0,1.09-.4,3.62-4.07,3.62l-10.21,0Z"/><path class="cls-1" d="M7.23,20.46h.89A1.56,1.56,0,0,1,9.68,22V30.6a1.56,1.56,0,0,1-1.56,1.56H7.23a0,0,0,0,1,0,0V20.46a0,0,0,0,1,0,0Z"/><path class="cls-2" d="M32.29,20.61H33.5c1.83,0,2.79,2.55,2.79,5.7S35.23,32,33.5,32H32.29"/><path class="cls-3" d="M33.5,32.16H32.29v-.3H33.5c1.53,0,2.64-2.34,2.64-5.55,0-2.76-.82-5.55-2.64-5.55H32.29v-.3H33.5c1.79,0,2.94,2.29,2.94,5.85S35.23,32.16,33.5,32.16Z"/><path class="cls-1" d="M30.32,20.46h.89A1.56,1.56,0,0,1,32.77,22V30.6a1.56,1.56,0,0,1-1.56,1.56h-.89a0,0,0,0,1,0,0V20.46A0,0,0,0,1,30.32,20.46Z" transform="translate(63.09 52.62) rotate(180)"/><rect class="cls-1" x="17.63" y="33.97" width="3.84" height="2.78" rx="0.5"/></svg>