<svg id="Layer_1" data-name="Layer 1" xmlns="http://www.w3.org/2000/svg" width="40" height="40" viewBox="0 0 40 40"><defs><style>.cls-1{fill:#f2f2f2;}.cls-2{fill:#1d4354;}.cls-3{fill:#fff;}.cls-4{fill:#d1d1d1;}.cls-5{fill:#6fda44;}</style></defs><title>svg</title><path class="cls-1" d="M1.09,6.72H38.91A1.09,1.09,0,0,1,40,7.82V36.38a.5.5,0,0,1-.5.5H.5a.5.5,0,0,1-.5-.5V7.82A1.09,1.09,0,0,1,1.09,6.72Z"/><path class="cls-2" d="M40,8.56V3.62a.5.5,0,0,0-.5-.5H.5a.5.5,0,0,0-.5.5V8.56Z"/><circle class="cls-3" cx="3.66" cy="5.84" r="0.61"/><circle class="cls-3" cx="6.92" cy="5.84" r="0.61"/><circle class="cls-3" cx="10.17" cy="5.84" r="0.61"/><path class="cls-4" d="M8.62,27.69a.39.39,0,0,1-.28-.12.4.4,0,0,1,0-.58l8.08-8.39a.41.41,0,0,1,.51-.06l7.42,4.51,6.75-6.76a.41.41,0,0,1,.58,0,.42.42,0,0,1,0,.59l-7,7a.42.42,0,0,1-.51.06l-7.4-4.51L8.92,27.56A.39.39,0,0,1,8.62,27.69Z"/><circle class="cls-5" cx="31.38" cy="16.58" r="1.66"/><circle class="cls-5" cx="24.08" cy="23.22" r="1.66"/><circle class="cls-5" cx="16.79" cy="19.09" r="1.66"/><circle class="cls-5" cx="8.62" cy="27.28" r="1.66"/></svg>