<svg id="Layer_1" data-name="Layer 1" xmlns="http://www.w3.org/2000/svg" width="40" height="40" viewBox="0 0 40 40"><defs><style>.cls-1{fill:#f2f2f2;}.cls-2{fill:#1d4354;}.cls-3{fill:#6fda44;}.cls-4{fill:#fff;}</style></defs><title>svg</title><circle class="cls-1" cx="20" cy="20" r="20"/><path class="cls-2" d="M30.38,15.81A10.38,10.38,0,1,0,15.21,25a1,1,0,0,1,.46.74l.71,2.89a.84.84,0,0,0,.83.68h5.58a.84.84,0,0,0,.83-.68l.71-2.89a1,1,0,0,1,.46-.74A10.37,10.37,0,0,0,30.38,15.81Z"/><rect class="cls-3" x="16.7" y="30.74" width="6.6" height="1.54"/><rect class="cls-3" x="16.7" y="33.03" width="6.6" height="1.54"/><path class="cls-4" d="M25.65,13.71a.16.16,0,0,0-.18-.14l-1,.11a.18.18,0,0,1-.13-.09,4.13,4.13,0,0,0-.41-.78.18.18,0,0,1,0-.2l.61-.73a.16.16,0,0,0,0-.23l-1.68-1.39a.16.16,0,0,0-.23,0L22,11a.15.15,0,0,1-.18,0,4.92,4.92,0,0,0-.85-.26.16.16,0,0,1-.13-.14l-.08-1a.17.17,0,0,0-.18-.15l-2.18.2a.16.16,0,0,0-.14.18l.08,1a.15.15,0,0,1-.1.16,4.46,4.46,0,0,0-.78.41.15.15,0,0,1-.19,0l-.74-.61a.17.17,0,0,0-.23,0l-1.39,1.68a.16.16,0,0,0,0,.23l.73.61a.17.17,0,0,1,0,.19,4.12,4.12,0,0,0-.27.84.11.11,0,0,1-.05.09l-1.12.13a.16.16,0,0,0-.14.18l.24,2.2a.16.16,0,0,0,.18.14l1-.1a.15.15,0,0,1,.15.09,5.41,5.41,0,0,0,.42.79.17.17,0,0,1,0,.19l-.61.73a.16.16,0,0,0,0,.23l1.68,1.4a.17.17,0,0,0,.23,0l.61-.74a.15.15,0,0,1,.18,0,4.92,4.92,0,0,0,.85.26.17.17,0,0,1,.13.14l.08.95a.17.17,0,0,0,.18.15L21.6,21a.17.17,0,0,0,.15-.18l-.09-.94a.18.18,0,0,1,.11-.17,4.84,4.84,0,0,0,.78-.41.15.15,0,0,1,.19,0l.73.61a.16.16,0,0,0,.23,0l1.4-1.68a.16.16,0,0,0,0-.23l-.73-.61a.16.16,0,0,1-.05-.19,4.81,4.81,0,0,0,.26-.84.14.14,0,0,1,.08-.1l1.11-.12a.16.16,0,0,0,.14-.18ZM20,17.62a2.26,2.26,0,1,1,2.26-2.26A2.26,2.26,0,0,1,20,17.62Z"/></svg>