<svg id="Layer_1" data-name="Layer 1" xmlns="http://www.w3.org/2000/svg" width="40" height="40" viewBox="0 0 40 40"><defs><style>.cls-1{fill:#1d4354;}.cls-2{fill:#fff;}.cls-3{fill:#6fda44;}.cls-4{fill:#b2b2b2;}.cls-5{fill:#e0e0e0;}.cls-6{fill:#d1d1d1;}</style></defs><title>svg</title><rect class="cls-1" x="11.63" y="7.17" width="5.45" height="29.57"/><rect class="cls-2" x="15.29" y="14.28" width="1.79" height="0.58"/><rect class="cls-2" x="15.29" y="10.63" width="1.79" height="0.58"/><rect class="cls-2" x="15.29" y="17.93" width="1.79" height="0.58"/><rect class="cls-2" x="15.29" y="21.58" width="1.79" height="0.58"/><rect class="cls-2" x="15.29" y="25.23" width="1.79" height="0.58"/><rect class="cls-2" x="15.29" y="28.88" width="1.79" height="0.58"/><rect class="cls-2" x="15.29" y="32.52" width="1.79" height="0.58"/><path class="cls-1" d="M11.85,31.38a9.43,9.43,0,0,1,0-18.85v4.08a5.35,5.35,0,0,0,0,10.69Z"/><circle class="cls-3" cx="11.85" cy="21.96" r="1.38"/><rect class="cls-4" x="21.33" y="34.4" width="0.74" height="2.46" transform="translate(9.35 -4.22) rotate(14.12)"/><rect class="cls-4" x="35.54" y="34.4" width="0.74" height="2.46" transform="translate(79.43 61.42) rotate(165.88)"/><rect class="cls-4" x="20.88" y="25.98" width="15.9" height="0.66"/><path class="cls-5" d="M23.21,13.77H25.8a0,0,0,0,1,0,0V34a1.18,1.18,0,0,1-1.18,1.18h-.24A1.18,1.18,0,0,1,23.21,34V13.77a0,0,0,0,1,0,0Z" transform="translate(6.71 -5.24) rotate(14.12)"/><path class="cls-5" d="M33,13.77h.24a1.18,1.18,0,0,1,1.18,1.18V35.17a0,0,0,0,1,0,0H31.81a0,0,0,0,1,0,0V14.94A1.18,1.18,0,0,1,33,13.77Z" transform="translate(71.17 40.12) rotate(165.88)"/><rect class="cls-3" x="27.95" y="24.93" width="1.76" height="2.69" rx="0.2"/><circle class="cls-4" cx="36.78" cy="26.31" r="0.79"/><circle class="cls-4" cx="20.88" cy="26.31" r="0.79"/><path class="cls-4" d="M28.15,3.17h1.31a.5.5,0,0,1,.5.5V9.93a0,0,0,0,1,0,0H27.65a0,0,0,0,1,0,0V3.67A.5.5,0,0,1,28.15,3.17Z"/><circle class="cls-6" cx="28.8" cy="11.19" r="4.3"/><circle class="cls-1" cx="28.8" cy="11.19" r="1.99"/></svg>